<svg width="18" height="18" viewBox="0 0 18 18" fill="none" xmlns="http://www.w3.org/2000/svg">
<path fill-rule="evenodd" clip-rule="evenodd" d="M15.2795 2.71652C16.7176 4.15255 17.6535 5.95709 17.9921 7.94018C18.0416 8.21751 17.8514 8.48344 17.5736 8.52523C17.5706 8.52562 17.5675 8.526 17.5645 8.52638C17.5378 8.52976 17.5135 8.53283 17.4861 8.53283C17.2388 8.53283 17.022 8.35808 16.9801 8.10734C16.6796 6.33699 15.8426 4.72241 14.5566 3.43834C13.2707 2.15807 11.6537 1.31848 9.88083 1.01836C9.59929 0.968972 9.41287 0.70684 9.45852 0.425712C9.50798 0.148383 9.77049 -0.0415684 10.0482 0.00781896C12.0342 0.345932 13.8414 1.28049 15.2795 2.71652ZM14.2333 11.1504C13.8642 10.7667 13.4191 10.5615 12.9473 10.5615C12.4794 10.5615 12.0304 10.7629 11.6462 11.1466L10.4439 12.3433C10.3786 12.3081 10.3132 12.2746 10.2489 12.2417L10.2486 12.2415C10.2157 12.2247 10.1831 12.208 10.151 12.1913C10.014 12.1229 9.88467 12.0583 9.77433 11.9899C8.64819 11.2757 7.62476 10.345 6.64319 9.14067C6.16762 8.54043 5.84804 8.03516 5.61596 7.52229C5.89784 7.26485 6.16108 6.9981 6.41692 6.73886L6.41692 6.73886L6.49861 6.65611C6.55188 6.60292 6.60515 6.54878 6.65842 6.49464L6.6585 6.49456C6.71173 6.44046 6.76496 6.38635 6.8182 6.33319C7.61715 5.5354 7.61715 4.50207 6.8182 3.70427L5.77955 2.66714C5.66161 2.54937 5.53987 2.4278 5.42573 2.30623C5.19746 2.07069 4.95777 1.82755 4.71047 1.59961C4.34143 1.2349 3.9001 1.04115 3.43595 1.04115C2.97179 1.04115 2.52286 1.2349 2.1424 1.59961L2.13479 1.60721L0.841243 2.91027C0.35426 3.39655 0.076528 3.9892 0.0156552 4.67682C-0.0756541 5.78614 0.251537 6.81947 0.502638 7.4957C1.11898 9.15587 2.03968 10.6945 3.41312 12.3433C5.07952 14.3301 7.08452 15.8991 9.37486 17.0047C10.2499 17.4187 11.4179 17.9088 12.7229 17.9924C12.8028 17.9962 12.8865 18 12.9626 18C13.8414 18 14.5795 17.6847 15.1578 17.0578C15.1593 17.0549 15.1613 17.0525 15.1635 17.0502C15.1641 17.0496 15.1648 17.049 15.1654 17.0483C15.1682 17.0455 15.1711 17.0426 15.173 17.0388C15.3562 16.8172 15.5655 16.6152 15.7857 16.4025L15.7857 16.4025L15.8388 16.3512C16.0024 16.1955 16.1698 16.0321 16.3334 15.8612C16.71 15.4699 16.9079 15.014 16.9079 14.5467C16.9079 14.0756 16.7062 13.6235 16.322 13.2436L14.2333 11.1504ZM15.2179 15.5298L15.2179 15.5299L15.1311 15.6142C14.8838 15.8498 14.6327 16.0967 14.3969 16.374C14.0126 16.7843 13.5599 16.9781 12.9664 16.9781C12.9093 16.9781 12.8484 16.9781 12.7913 16.9743C11.6614 16.9021 10.6113 16.4614 9.82379 16.0853C7.67042 15.0444 5.77955 13.5665 4.20827 11.6936C2.91092 10.1322 2.04348 8.68859 1.46899 7.13859C1.11517 6.19263 0.985816 5.45562 1.04288 4.7604C1.08093 4.31591 1.25214 3.94741 1.56791 3.63209L2.86527 2.33662C3.05169 2.16187 3.24953 2.06689 3.44356 2.06689C3.68324 2.06689 3.87728 2.21125 3.99902 2.33282L4.01044 2.34422C4.24251 2.56076 4.46318 2.78491 4.69526 3.02424C4.75469 3.08551 4.81509 3.14677 4.87597 3.20851L4.87605 3.2086C4.93595 3.26936 4.99632 3.33059 5.05669 3.39275L6.09533 4.42988C6.49861 4.83258 6.49861 5.20489 6.09533 5.60758C6.05845 5.64441 6.022 5.68123 5.98568 5.71792L5.98556 5.71804C5.91328 5.79106 5.84155 5.86352 5.76814 5.9343C5.44856 6.26101 5.14419 6.56494 4.8132 6.86126C4.8105 6.86395 4.80781 6.86617 4.80528 6.86824C4.80067 6.87203 4.79663 6.87535 4.79417 6.88025C4.46698 7.20697 4.52786 7.52609 4.59634 7.74263L4.60775 7.77682C4.87787 8.43026 5.25833 9.0457 5.83662 9.77891L5.84043 9.78271C6.89048 11.0744 7.99761 12.0811 9.21887 12.8523C9.37486 12.9511 9.53465 13.0309 9.68683 13.1069L9.68684 13.1069C9.8238 13.1752 9.95315 13.2398 10.0635 13.3082C10.0711 13.312 10.0787 13.3168 10.0863 13.3215C10.0939 13.3263 10.1015 13.331 10.1091 13.3348C10.2385 13.3994 10.3602 13.4298 10.4858 13.4298C10.8016 13.4298 10.9994 13.2322 11.0641 13.1676L12.3652 11.8684C12.4946 11.7392 12.7 11.5834 12.9397 11.5834C13.1756 11.5834 13.3696 11.7316 13.4876 11.8608L13.4952 11.8684L15.5915 13.9616C15.9834 14.3491 15.9834 14.748 15.5953 15.1507C15.4735 15.2817 15.3491 15.4025 15.2179 15.5298ZM9.72863 4.28172C10.7254 4.44888 11.6309 4.91996 12.3538 5.64177C13.0766 6.36359 13.5446 7.26776 13.7158 8.2631C13.7577 8.51384 13.9745 8.68859 14.2218 8.68859C14.2492 8.68859 14.2734 8.68552 14.3002 8.68214L14.3093 8.68099C14.5908 8.6354 14.7773 8.36947 14.7316 8.08835C14.5262 6.88406 13.9555 5.78614 13.0842 4.91616C12.213 4.04618 11.1135 3.47633 9.90744 3.27118C9.62591 3.22559 9.36339 3.41175 9.31393 3.68907C9.26447 3.9664 9.44709 4.23613 9.72863 4.28172Z"/>
</svg>
